<svg version="1.2" xmlns="http://www.w3.org/2000/svg" xmlns:xlink="http://www.w3.org/1999/xlink" overflow="visible" preserveAspectRatio="none" viewBox="0 0 76 76" xml:space="preserve" id="Layer_1_1554474189660" width="32" height="32"><g transform="translate(1, 1)"><style type="text/css">
	.st0_1554474189660{fill:#2B3033;}
</style><g><path d="M72.3,35.8L58.6,9.9c-0.8-1.5-2.1-2.6-3.7-3.1c-1.6-0.5-3.3-0.3-4.8,0.4L15.5,25.6H7.3c-3.5,0-6.3,2.8-6.3,6.3   v29.3c0,3.5,2.8,6.3,6.3,6.3h45.2c3.5,0,6.3-2.8,6.3-6.3V50l10.9-5.7c1.5-0.8,2.6-2.1,3.1-3.7C73.2,39,73.1,37.3,72.3,35.8z    M7.3,29.6h45.2c1.3,0,2.3,1,2.3,2.3v20.3H5V31.9C5,30.6,6,29.6,7.3,29.6z M52.5,63.4H7.3c-1.3,0-2.3-1-2.3-2.3v-5h49.8v5   C54.8,62.4,53.8,63.4,52.5,63.4z M68.9,39.4c-0.2,0.6-0.6,1.1-1.1,1.3l-9,4.7V31.9c0-3.5-2.8-6.3-6.3-6.3H24l28-14.7   c0.5-0.3,1.2-0.3,1.7-0.2c0.6,0.2,1.1,0.6,1.3,1.1l13.7,25.9C69,38.2,69.1,38.9,68.9,39.4z" class="st0_1554474189660" vector-effect="non-scaling-stroke" style="fill: rgb(51, 51, 51);"/><path d="M12.3,45.3h6.9c2.3,0,4.2-1.9,4.2-4.2v-4.2c0-2.3-1.9-4.2-4.2-4.2h-6.9c-2.3,0-4.2,1.9-4.2,4.2v4.2   C8.2,43.4,10,45.3,12.3,45.3z M12.2,36.9c0-0.1,0.1-0.2,0.2-0.2h6.9c0.1,0,0.2,0.1,0.2,0.2v4.2c0,0.1-0.1,0.2-0.2,0.2h-6.9   c-0.1,0-0.2-0.1-0.2-0.2V36.9z" class="st0_1554474189660" vector-effect="non-scaling-stroke" style="fill: rgb(51, 51, 51);"/></g></g></svg>