<svg xmlns="http://www.w3.org/2000/svg" version="1.2" overflow="visible" preserveAspectRatio="none" viewBox="0 0 24 24" width="28" height="28"><g><path xmlns:default="http://www.w3.org/2000/svg" id="plus-circle" d="M16.66,12.67c-0.01,0.37-0.3,0.66-0.67,0.67h-2.66V16c-0.01,0.37-0.3,0.66-0.67,0.67h-1.33  c-0.36-0.01-0.65-0.31-0.66-0.67v-2.67H8c-0.37-0.01-0.66-0.3-0.67-0.67v-1.33c0.01-0.36,0.31-0.65,0.67-0.66h2.67V8  c0.01-0.37,0.3-0.66,0.67-0.67h1.33c0.37,0.01,0.66,0.3,0.67,0.67v2.67H16c0.37,0.01,0.66,0.3,0.67,0.67v1.33l0,0H16.66z M18.92,8  c-0.7-1.21-1.71-2.22-2.92-2.92C14.79,4.37,13.41,3.99,12,4c-1.41-0.01-2.79,0.37-4,1.08C6.79,5.78,5.78,6.79,5.08,8  C4.37,9.21,3.99,10.59,4,12c-0.01,1.41,0.36,2.79,1.07,4c0.7,1.21,1.71,2.22,2.93,2.92c1.21,0.71,2.59,1.09,4,1.08  c1.41,0.01,2.79-0.36,4-1.07c1.21-0.7,2.22-1.71,2.92-2.93c0.71-1.21,1.09-2.59,1.08-4C20.01,10.59,19.63,9.21,18.92,8z" style="fill: rgb(0, 0, 0);" vector-effect="non-scaling-stroke"/></g></svg>